<?xml version="1.0" encoding="UTF-8" standalone="no"?>
<!DOCTYPE svg PUBLIC "-//W3C//DTD SVG 1.1//EN"
 "http://www.w3.org/Graphics/SVG/1.1/DTD/svg11.dtd">
<!-- Generated by graphviz version 2.40.1 (20161225.0304)
 -->
<!-- Title: state transitions Pages: 1 -->
<svg width="428pt" height="528pt"
 viewBox="0.00 0.00 428.00 528.00" xmlns="http://www.w3.org/2000/svg" xmlns:xlink="http://www.w3.org/1999/xlink">
<g id="graph0" class="graph" transform="scale(1 1) rotate(0) translate(4 524)">
<title>state transitions</title>
<polygon fill="#ffffff" stroke="transparent" points="-4,4 -4,-524 424,-524 424,4 -4,4"/>
<g id="clust1" class="cluster state regular">
<title>cluster_nstate</title>
<path fill="none" stroke="#000000" stroke-width="2" d="M20,-8C20,-8 400,-8 400,-8 406,-8 412,-14 412,-20 412,-20 412,-500 412,-500 412,-506 406,-512 400,-512 400,-512 20,-512 20,-512 14,-512 8,-506 8,-500 8,-500 8,-20 8,-20 8,-14 14,-8 20,-8"/>
<text text-anchor="start" x="193.659" y="-493.2" font-family="Helvetica,sans-Serif" font-size="12.00" fill="#000000">nstate</text>
</g>
<!-- nstate -->
<!-- IDLE -->
<g id="node2" class="node state regular">
<title>IDLE</title>
<polygon fill="#ffffff" fill-opacity="0.003922" stroke="transparent" stroke-width="2" points="224,-474 168,-474 168,-438 224,-438 224,-474"/>
<text text-anchor="start" x="182.6644" y="-452.2" font-family="Helvetica,sans-Serif" font-size="12.00" fill="#000000">IDLE</text>
<path fill="none" stroke="#000000" stroke-width="2" d="M180.3333,-439C180.3333,-439 211.6667,-439 211.6667,-439 217.3333,-439 223,-444.6667 223,-450.3333 223,-450.3333 223,-461.6667 223,-461.6667 223,-467.3333 217.3333,-473 211.6667,-473 211.6667,-473 180.3333,-473 180.3333,-473 174.6667,-473 169,-467.3333 169,-461.6667 169,-461.6667 169,-450.3333 169,-450.3333 169,-444.6667 174.6667,-439 180.3333,-439"/>
</g>
<!-- START -->
<g id="node3" class="node state regular">
<title>START</title>
<polygon fill="#ffffff" fill-opacity="0.003922" stroke="transparent" stroke-width="2" points="226.5,-392 165.5,-392 165.5,-356 226.5,-356 226.5,-392"/>
<text text-anchor="start" x="176.835" y="-370.2" font-family="Helvetica,sans-Serif" font-size="12.00" fill="#000000">START</text>
<path fill="none" stroke="#000000" stroke-width="2" d="M177.8333,-357C177.8333,-357 214.1667,-357 214.1667,-357 219.8333,-357 225.5,-362.6667 225.5,-368.3333 225.5,-368.3333 225.5,-379.6667 225.5,-379.6667 225.5,-385.3333 219.8333,-391 214.1667,-391 214.1667,-391 177.8333,-391 177.8333,-391 172.1667,-391 166.5,-385.3333 166.5,-379.6667 166.5,-379.6667 166.5,-368.3333 166.5,-368.3333 166.5,-362.6667 172.1667,-357 177.8333,-357"/>
</g>
<!-- IDLE&#45;&gt;START -->
<g id="edge1" class="edge transition">
<title>IDLE&#45;&gt;START</title>
<path fill="none" stroke="#000000" d="M196,-437.8015C196,-427.3976 196,-414.1215 196,-402.3768"/>
<polygon fill="#000000" stroke="#000000" points="199.5001,-402.1476 196,-392.1476 192.5001,-402.1476 199.5001,-402.1476"/>
<text text-anchor="start" x="196" y="-412" font-family="Helvetica,sans-Serif" font-size="10.00" fill="#000000">IDLE_START &#160;&#160;</text>
</g>
<!-- cstate -->
<g id="node7" class="node state regular">
<title>cstate</title>
<polygon fill="#ffffff" fill-opacity="0.003922" stroke="transparent" stroke-width="2" points="343,-52 287,-52 287,-16 343,-16 343,-52"/>
<text text-anchor="start" x="298.9944" y="-30.2" font-family="Helvetica,sans-Serif" font-size="12.00" fill="#000000">cstate</text>
<path fill="none" stroke="#ff0000" stroke-width="2" d="M299.3333,-17C299.3333,-17 330.6667,-17 330.6667,-17 336.3333,-17 342,-22.6667 342,-28.3333 342,-28.3333 342,-39.6667 342,-39.6667 342,-45.3333 336.3333,-51 330.6667,-51 330.6667,-51 299.3333,-51 299.3333,-51 293.6667,-51 288,-45.3333 288,-39.6667 288,-39.6667 288,-28.3333 288,-28.3333 288,-22.6667 293.6667,-17 299.3333,-17"/>
</g>
<!-- IDLE&#45;&gt;cstate -->
<g id="edge2" class="edge transition">
<title>IDLE&#45;&gt;cstate</title>
<path fill="none" stroke="#ff0000" d="M224.0804,-448.935C258.4109,-439.8934 312,-424.2915 312,-415 312,-415 312,-415 312,-265.5 312,-223.8021 373.2406,-261.5513 398,-228 409.8175,-211.9861 403,-203.4022 403,-183.5 403,-183.5 403,-183.5 403,-75 403,-63.2232 376.777,-52.0864 352.9604,-44.4002"/>
<polygon fill="#ff0000" stroke="#ff0000" points="353.9156,-41.0321 343.3281,-41.4271 351.8511,-47.7208 353.9156,-41.0321"/>
<text text-anchor="start" x="326" y="-248" font-family="Helvetica,sans-Serif" font-size="10.00" fill="#ff0000">not (IDLE_START) &#160;&#160;</text>
</g>
<!-- DATA -->
<g id="node4" class="node state regular">
<title>DATA</title>
<polygon fill="#ffffff" fill-opacity="0.003922" stroke="transparent" stroke-width="2" points="184,-310 128,-310 128,-274 184,-274 184,-310"/>
<text text-anchor="start" x="140.0004" y="-288.2" font-family="Helvetica,sans-Serif" font-size="12.00" fill="#000000">DATA</text>
<path fill="none" stroke="#000000" stroke-width="2" d="M140.3333,-275C140.3333,-275 171.6667,-275 171.6667,-275 177.3333,-275 183,-280.6667 183,-286.3333 183,-286.3333 183,-297.6667 183,-297.6667 183,-303.3333 177.3333,-309 171.6667,-309 171.6667,-309 140.3333,-309 140.3333,-309 134.6667,-309 129,-303.3333 129,-297.6667 129,-297.6667 129,-286.3333 129,-286.3333 129,-280.6667 134.6667,-275 140.3333,-275"/>
</g>
<!-- START&#45;&gt;DATA -->
<g id="edge3" class="edge transition">
<title>START&#45;&gt;DATA</title>
<path fill="none" stroke="#000000" d="M187.1227,-355.8015C181.8923,-345.0791 175.1737,-331.306 169.3183,-319.3026"/>
<polygon fill="#000000" stroke="#000000" points="172.3825,-317.6008 164.8525,-310.1476 166.0911,-320.6698 172.3825,-317.6008"/>
<text text-anchor="start" x="178" y="-330" font-family="Helvetica,sans-Serif" font-size="10.00" fill="#000000">START_DATA &#160;&#160;</text>
</g>
<!-- START&#45;&gt;cstate -->
<g id="edge4" class="edge transition">
<title>START&#45;&gt;cstate</title>
<path fill="none" stroke="#ff0000" d="M226.5224,-368.6491C245.7659,-363.3213 267,-352.9276 267,-333 267,-333 267,-333 267,-265.5 267,-229.6317 273.4406,-215.7391 300.329,-192 319.4043,-175.1589 338.3945,-194.2808 355,-175 364.5371,-163.9264 360,-157.1144 360,-142.5 360,-142.5 360,-142.5 360,-75 360,-67.2979 356.3534,-60.6584 351.1363,-55.1007"/>
<polygon fill="#ff0000" stroke="#ff0000" points="353.0741,-52.1456 343.2437,-48.1943 348.4645,-57.4136 353.0741,-52.1456"/>
<text text-anchor="start" x="300" y="-207" font-family="Helvetica,sans-Serif" font-size="10.00" fill="#ff0000">not (START_DATA) &#160;&#160;</text>
</g>
<!-- CHECK -->
<g id="node5" class="node state regular">
<title>CHECK</title>
<polygon fill="#ffffff" fill-opacity="0.003922" stroke="transparent" stroke-width="2" points="214.5,-228 151.5,-228 151.5,-192 214.5,-192 214.5,-228"/>
<text text-anchor="start" x="162.503" y="-206.2" font-family="Helvetica,sans-Serif" font-size="12.00" fill="#000000">CHECK</text>
<path fill="none" stroke="#000000" stroke-width="2" d="M163.8333,-193C163.8333,-193 202.1667,-193 202.1667,-193 207.8333,-193 213.5,-198.6667 213.5,-204.3333 213.5,-204.3333 213.5,-215.6667 213.5,-215.6667 213.5,-221.3333 207.8333,-227 202.1667,-227 202.1667,-227 163.8333,-227 163.8333,-227 158.1667,-227 152.5,-221.3333 152.5,-215.6667 152.5,-215.6667 152.5,-204.3333 152.5,-204.3333 152.5,-198.6667 158.1667,-193 163.8333,-193"/>
</g>
<!-- DATA&#45;&gt;CHECK -->
<g id="edge6" class="edge transition">
<title>DATA&#45;&gt;CHECK</title>
<path fill="none" stroke="#000000" d="M153.5332,-273.6949C152.9922,-264.8093 153.3296,-254.1117 156.443,-245 157.391,-242.2256 158.653,-239.4954 160.1134,-236.8585"/>
<polygon fill="#000000" stroke="#000000" points="163.1471,-238.6137 165.6746,-228.3247 157.2825,-234.7918 163.1471,-238.6137"/>
<text text-anchor="start" x="156" y="-248" font-family="Helvetica,sans-Serif" font-size="10.00" fill="#000000">DATA_CHECK &#160;&#160;</text>
</g>
<!-- STOP -->
<g id="node6" class="node state regular">
<title>STOP</title>
<polygon fill="#ffffff" fill-opacity="0.003922" stroke="transparent" stroke-width="2" points="94,-134 38,-134 38,-98 94,-98 94,-134"/>
<text text-anchor="start" x="49.6644" y="-112.2" font-family="Helvetica,sans-Serif" font-size="12.00" fill="#000000">STOP</text>
<path fill="none" stroke="#000000" stroke-width="2" d="M50.3333,-99C50.3333,-99 81.6667,-99 81.6667,-99 87.3333,-99 93,-104.6667 93,-110.3333 93,-110.3333 93,-121.6667 93,-121.6667 93,-127.3333 87.3333,-133 81.6667,-133 81.6667,-133 50.3333,-133 50.3333,-133 44.6667,-133 39,-127.3333 39,-121.6667 39,-121.6667 39,-110.3333 39,-110.3333 39,-104.6667 44.6667,-99 50.3333,-99"/>
</g>
<!-- DATA&#45;&gt;STOP -->
<g id="edge5" class="edge transition">
<title>DATA&#45;&gt;STOP</title>
<path fill="none" stroke="#000000" d="M127.7622,-278.3208C108.7887,-267.494 85.1481,-250.4589 73.212,-228 59.4935,-202.1874 59.377,-168.1645 61.6316,-144.4191"/>
<polygon fill="#000000" stroke="#000000" points="65.13,-144.6327 62.794,-134.2986 58.1757,-143.8339 65.13,-144.6327"/>
<text text-anchor="start" x="73" y="-207" font-family="Helvetica,sans-Serif" font-size="10.00" fill="#000000">DATA_STOP &#160;&#160;</text>
</g>
<!-- DATA&#45;&gt;cstate -->
<g id="edge7" class="edge transition">
<title>DATA&#45;&gt;cstate</title>
<path fill="none" stroke="#ff0000" d="M184.2197,-289.4104C207.9394,-285.4969 238,-275.6705 238,-251 238,-251 238,-251 238,-183.5 238,-167.1763 243.0091,-161.957 255.109,-151 270.0028,-137.513 284.3393,-149.6023 297,-134 313.3341,-113.8708 316.8468,-83.8997 316.8756,-62.0187"/>
<polygon fill="#ff0000" stroke="#ff0000" points="320.3744,-61.9246 316.6508,-52.0057 313.3762,-62.0817 320.3744,-61.9246"/>
<text text-anchor="start" x="255" y="-166" font-family="Helvetica,sans-Serif" font-size="10.00" fill="#ff0000">not (DATA_STOP) &#160;&#160;</text>
<text text-anchor="start" x="255" y="-154" font-family="Helvetica,sans-Serif" font-size="10.00" fill="#ff0000">not (DATA_CHECK) &#160;&#160;</text>
</g>
<!-- CHECK&#45;&gt;STOP -->
<g id="edge8" class="edge transition">
<title>CHECK&#45;&gt;STOP</title>
<path fill="none" stroke="#000000" d="M151.3032,-198.4538C137.9804,-192.6671 122.8348,-184.7872 110.883,-175 99.8046,-165.928 89.8781,-153.5976 82.1948,-142.5546"/>
<polygon fill="#000000" stroke="#000000" points="84.9928,-140.4416 76.5347,-134.061 79.1677,-144.3235 84.9928,-140.4416"/>
<text text-anchor="start" x="110" y="-160" font-family="Helvetica,sans-Serif" font-size="10.00" fill="#000000">CHECK_STOP &#160;&#160;</text>
</g>
<!-- CHECK&#45;&gt;cstate -->
<g id="edge9" class="edge transition">
<title>CHECK&#45;&gt;cstate</title>
<path fill="none" stroke="#ff0000" d="M188.7011,-191.8875C190.9468,-183.2345 193,-172.6771 193,-163 193,-163 193,-163 193,-75 193,-57.1033 240.768,-45.5505 276.524,-39.4098"/>
<polygon fill="#ff0000" stroke="#ff0000" points="277.3984,-42.8135 286.7041,-37.7486 276.2709,-35.9048 277.3984,-42.8135"/>
<text text-anchor="start" x="193" y="-113" font-family="Helvetica,sans-Serif" font-size="10.00" fill="#ff0000">not (CHECK_STOP) &#160;&#160;</text>
</g>
<!-- STOP&#45;&gt;IDLE -->
<g id="edge10" class="edge transition">
<title>STOP&#45;&gt;IDLE</title>
<path fill="none" stroke="#000000" d="M58.3015,-134.278C57.4203,-136.8388 56.618,-139.4626 56,-142 55.0476,-145.9103 55.4254,-146.9979 55,-151 47.0905,-225.4077 38,-243.6731 38,-318.5 38,-415 38,-415 38,-415 38,-439.6339 110.8676,-449.7184 157.6329,-453.6538"/>
<polygon fill="#000000" stroke="#000000" points="157.5104,-457.1548 167.7528,-454.4448 158.056,-450.1761 157.5104,-457.1548"/>
<text text-anchor="start" x="39" y="-289" font-family="Helvetica,sans-Serif" font-size="10.00" fill="#000000">STOP_IDLE &#160;&#160;</text>
</g>
<!-- STOP&#45;&gt;cstate -->
<g id="edge11" class="edge transition">
<title>STOP&#45;&gt;cstate</title>
<path fill="none" stroke="#ff0000" d="M74.8945,-97.5768C80.7192,-87.519 89.2987,-75.769 100.318,-69 129.202,-51.2569 223.1571,-41.1866 276.7098,-36.7536"/>
<polygon fill="#ff0000" stroke="#ff0000" points="277.1617,-40.2287 286.8504,-35.9416 276.6029,-33.2511 277.1617,-40.2287"/>
<text text-anchor="start" x="100" y="-72" font-family="Helvetica,sans-Serif" font-size="10.00" fill="#ff0000">not (STOP_IDLE) &#160;&#160;</text>
</g>
</g>
</svg>
